<svg width="95" height="95" viewBox="0 0 95 95" fill="none"
  xmlns="http://www.w3.org/2000/svg">
  <path fill-rule="evenodd" clip-rule="evenodd" d="M71.0643 14.0009C69.4864 12.2006 67.7765 10.8496 66.4451 9.93891C66.0903 9.69605 65.7597 9.48265 65.4621 9.29845V2.63889C65.4621 1.93904 65.1463 1.26778 64.5845 0.772867C64.0224 0.277952 63.2604 0 62.4658 0L49.5697 0.000122716C47.9151 0.000122716 46.5737 1.18163 46.5737 2.63901V9.06038L42.1618 10.8816L36.4176 4.53706C35.4609 3.48048 33.7528 3.23112 32.4602 3.95956L22.355 9.65408C21.6401 10.057 21.1529 10.7081 21.0142 11.4454C20.8752 12.183 21.0981 12.9377 21.6272 13.5222L27.1021 19.5693C26.9597 19.7054 26.8141 19.849 26.6663 20.0002C25.8828 20.8013 25.0283 21.8236 24.2579 23.0709C22.1047 21.4042 19.6008 20.0161 17.2323 18.901C14.5055 17.6171 11.8424 16.6418 9.87176 15.9889C8.88269 15.6613 8.05903 15.4118 7.47716 15.2429C7.18592 15.1583 6.95461 15.0938 6.79311 15.0495C6.71221 15.0273 6.64869 15.0105 6.60375 14.9984L6.55011 14.9844L6.53424 14.9801L6.52884 14.9785C6.52641 14.9781 6.52184 14.9887 5.92191 16.7838L6.52524 14.9779C5.71359 14.7675 4.83868 14.8692 4.11671 15.2578C3.39476 15.6466 2.89307 16.2859 2.73559 17.0183L0.0523619 29.4935C-0.0982892 30.1941 0.0792665 30.9185 0.544648 31.5017C1.01005 32.0851 1.72364 32.4778 2.52298 32.5905C5.80181 33.0523 8.27896 34.4891 9.97513 35.868C10.8201 36.5543 11.4484 37.2091 11.8583 37.6825C11.9238 37.7581 11.9834 37.8286 12.0371 37.8937C9.0412 41.9176 7.88252 46.6531 8.06891 51.5288C8.3209 58.1302 11.0238 65.113 15.0786 71.431C19.1418 77.7619 24.6666 83.5895 30.7871 87.8618C36.8653 92.1046 43.8076 95 50.6663 95C57.5076 95 64.6279 92.1196 70.9329 87.8555C77.2859 83.5592 83.1034 77.666 87.3676 71.1796C95.747 58.4343 98.8055 42.0449 85.2604 31.4927C84.7006 31.0566 84.1811 30.6887 83.6844 30.3683C85.8591 30.3433 88.3576 30.3823 91.2679 30.4708L94.2554 30.5615L94.3654 27.9304L94.8894 15.3913L95 12.7482L91.9986 12.6569C84.3904 12.4257 77.4047 12.7195 71.0643 14.0009ZM59.4696 5.27778L52.5662 5.2779V10.7379C52.5662 11.7615 51.8939 12.693 50.8416 13.1274L42.5644 16.5442C41.3093 17.0622 39.8145 16.7546 38.9504 15.7998L33.4157 9.68672L28.3856 12.5213L33.5304 18.2042C34.0494 18.777 34.2744 19.5146 34.1513 20.2395C34.0292 20.9578 33.5765 21.5998 32.9003 22.0147L32.8968 22.0169L32.8938 22.0186L32.8886 22.0218L32.8864 22.0231C32.8853 22.0242 32.8837 22.0252 32.882 22.0263C32.8697 22.0343 32.8517 22.0462 32.8284 22.0619C32.7571 22.1099 32.6373 22.1933 32.4805 22.3126C32.1665 22.5514 31.7111 22.9288 31.2065 23.4444C30.2776 24.3944 29.2094 25.7857 28.5249 27.6286C29.0223 28.4435 29.4211 29.3125 29.6836 30.2349C30.3087 30.2408 30.9305 30.2605 31.5454 30.2915C35.7655 30.5044 40.1079 31.2762 43.9053 32.1969C48.6449 24.5311 54.3343 19.861 62.4194 16.5651C63.1956 16.2487 63.9839 15.9546 64.7842 15.6815C64.0724 15.0472 63.3748 14.5214 62.7687 14.1067C62.2231 13.7333 61.762 13.4573 61.4486 13.2799C61.2922 13.1915 61.1735 13.1284 61.1004 13.0904C61.0642 13.0715 61.039 13.0587 61.0276 13.053L61.0232 13.0507L61.0201 13.0493L61.0174 13.048C60.0628 12.5837 59.4696 11.699 59.4696 10.7379V5.27778ZM88.4865 25.1188L88.7894 17.8697C79.2585 17.773 71.4472 18.7006 64.9368 21.3547C58.4369 24.0044 53.7803 27.6156 49.7322 33.8311C52.7471 34.7586 55.6951 35.8206 57.6907 36.5689C57.6987 36.5719 57.7281 36.5824 57.7953 36.5625C57.869 36.5407 57.9451 36.4919 57.996 36.4203C61.3231 31.7628 65.0887 29.0193 69.406 27.2592C74.2331 25.2914 80.0218 24.9459 88.4865 25.1188ZM15.7487 33.5383C16.0501 33.3881 16.378 33.2274 16.7317 33.0577C18.3861 32.264 20.6078 31.2723 23.3109 30.2359C22.8032 29.3667 22.0294 28.4834 20.9869 27.5919C19.2054 26.0682 16.8527 24.7068 14.4072 23.5555C12.0752 22.4574 9.7621 21.5984 7.97817 21.0008L6.46855 28.0192C9.74399 28.9665 12.2638 30.5461 14.0395 31.9894C14.7059 32.531 15.2751 33.0594 15.7487 33.5383ZM44.5689 37.9058C48.1453 38.8274 52.2935 40.2885 55.0273 41.3068L50.6968 49.5583L39.6019 53.9773L27.6006 51.487L26.2265 56.6242L35.8459 58.6202L32.69 65.646L38.2624 67.5875L42.2473 58.716L48.7454 56.1279C48.4268 59.1907 48.9799 62.2937 50.3825 65.1487L51.4141 67.2485L52.2181 77.6242L58.1965 77.2651L57.5523 68.9478L67.466 67.9342L66.775 62.6915L56.2342 63.7693L55.8822 63.0528C54.5207 60.281 54.2798 57.1818 55.1999 54.2725L55.7695 52.4712L62.2262 40.1686C62.5419 39.8852 62.8251 39.5713 63.0684 39.2308C65.8066 35.3972 68.7037 33.3614 71.9232 32.0488C72.4429 31.837 72.9851 31.648 73.559 31.4803C75.5305 32.4691 76.9729 33.043 78.0325 33.5149C79.1621 34.0177 80.0451 34.476 81.2901 35.4458C91.507 43.4052 90.1188 56.4622 82.1817 68.5349C78.2881 74.4576 72.9806 79.8163 67.2832 83.6697C61.5379 87.5552 55.6829 89.7222 50.6663 89.7222C45.667 89.7222 40.0107 87.5657 34.5093 83.7256C29.0498 79.9145 24.0138 74.6275 20.2954 68.8338C16.5687 63.0269 14.2691 56.8744 14.0578 51.3512C13.849 45.8803 15.6743 41.1588 20.0428 37.7554C22.2753 36.0161 26.1812 35.307 31.2024 35.5606C34.4973 35.727 37.9613 36.2922 41.149 37.0123L41.143 37.023L44.5689 37.9058Z" fill="currentColor"/>
</svg>
