<svg width="93" height="93" viewBox="0 0 93 93" fill="none"
  xmlns="http://www.w3.org/2000/svg">
  <path fill-rule="evenodd" clip-rule="evenodd" d="M44.8591 9.01213C45.4337 8.56057 69.4268 -10.1049 85.2851 8.28237C93.991 18.3768 93.2529 28.8494 90.0224 39.1053L78.6562 71.6643C75.3328 82.985 72.9632 86.4796 67.1405 91.398C63.6842 94.317 59.7862 89.2748 55.6841 83.9679C52.1301 79.3699 48.4231 74.5742 44.7167 74.5855C40.949 74.597 37.1822 79.4006 33.5783 83.9964C29.4217 89.2973 25.4819 94.3214 22.0072 91.398C14.9911 85.4939 11.9142 77.336 8.69809 64.2444C8.07909 61.7239 7.13717 58.701 6.09866 55.3672C1.74269 41.3855 -4.31668 21.9356 4.57073 11.1452C15.5455 -2.17915 29.1772 -4.32406 44.7138 8.90514L44.8591 9.01213ZM37.1926 10.3804C31.8173 6.68675 27.2481 5.512 23.4421 5.81139C18.7657 6.17902 13.9085 8.87819 9.02157 14.8114C5.34643 19.2733 4.97238 26.8112 6.9538 36.6591C7.89745 41.3491 9.27414 46.0987 10.6606 50.61C10.9596 51.5833 11.2635 52.5586 11.5648 53.525C12.6151 56.8958 13.6323 60.1594 14.298 62.8687C17.2422 74.8542 19.8033 81.2956 24.4489 85.8339C25.4078 84.9422 26.6208 83.5096 28.2255 81.4761C28.4755 81.159 28.7349 80.8277 29.0022 80.4864C30.6462 78.3877 32.5931 75.9016 34.5793 73.9142C36.6892 71.8032 40.1769 68.8331 44.6994 68.8193C49.2426 68.8053 52.7211 71.8237 54.788 73.92C56.7453 75.9056 58.6652 78.3923 60.2855 80.4909C60.5505 80.834 60.8074 81.1668 61.055 81.4853C62.6269 83.5061 63.8177 84.9326 64.7593 85.825C66.627 84.1364 67.8382 82.7265 68.8862 80.9733C70.2392 78.71 71.4995 75.5717 73.1235 70.0399C73.1506 69.9471 73.1803 69.8551 73.2123 69.7637L84.5485 37.2902C86.0307 32.5627 86.7834 28.2458 86.3905 24.189C86.0079 20.2375 84.5089 16.2114 80.9183 12.0482C74.9661 5.14651 67.6534 5.04207 60.7544 7.18001C57.2799 8.25662 54.1615 9.86015 51.8778 11.2313C51.0209 11.7458 50.2987 12.2172 49.7382 12.5994L60.8123 20.742C62.095 21.6853 62.3703 23.4898 61.427 24.7725C60.4839 26.0556 58.6791 26.3309 57.3964 25.3875L41.756 13.8873C41.5395 13.7495 41.3302 13.5961 41.1298 13.4269L37.7908 10.9719C37.5576 10.8004 37.3578 10.6005 37.1926 10.3804Z" fill="currentColor"/>
</svg>
