<svg width="36" height="38" viewBox="0 0 36 38" fill="none"
  xmlns="http://www.w3.org/2000/svg">
  <path fill-rule="evenodd" clip-rule="evenodd" d="M8.7382 10.2982C8.09738 10.4066 7.80358 11.7508 8.08536 13.2975C8.34373 14.7186 8.99537 15.8177 9.60136 15.9013C10.3684 17.9259 11.5842 19.8938 13.0876 21.3292C13.9366 22.1459 14.8794 22.7897 15.8829 23.1814C16.5742 23.4485 17.2952 23.5984 18.0373 23.5984C18.7782 23.5984 19.4993 23.4497 20.1896 23.1814C21.2295 22.7756 22.2038 22.1002 23.0759 21.2452C24.542 19.8112 25.7299 17.8739 26.4792 15.8847C27.0597 15.7174 27.6663 14.6551 27.9135 13.2968C28.1806 11.8234 27.9285 10.5384 27.348 10.3249C27.3691 9.96469 27.3826 9.60066 27.3799 9.2287C27.3676 3.88825 24.1724 0.361369 19.1373 0.0318885C14.7455 -0.258213 11.4377 1.45235 9.93096 4.2941C9.42262 5.25012 9.13508 6.86933 9.02271 8.16848C8.85357 8.84528 8.75532 9.54913 8.75532 10.2769H8.77305C8.77305 10.2837 8.77215 10.2896 8.77034 10.2946C8.75773 10.2952 8.74961 10.2961 8.7379 10.2981L8.7382 10.2982ZM29.5969 24.311C29.5086 24.2954 29.4353 24.2816 29.3755 24.2671C29.3335 24.2578 29.2897 24.2502 29.2457 24.2427C29.215 24.2374 29.1843 24.2321 29.1541 24.2262C29.1615 24.2407 29.1695 24.2548 29.1774 24.2689L29.1775 24.269C29.1886 24.2888 29.1998 24.3086 29.2096 24.3296C29.4022 24.7319 29.5353 25.1507 29.6071 25.5769C29.7315 25.6181 29.8463 25.6664 29.9547 25.7238C31.1159 26.3326 31.556 27.7554 30.9344 28.8943C30.5174 29.6586 29.7095 30.1328 28.8253 30.1328C28.4351 30.1328 28.0457 30.037 27.6999 29.8553C27.1369 29.5605 26.7247 29.0683 26.5405 28.469C26.3555 27.8703 26.4195 27.2364 26.7202 26.6851C27.0191 26.1376 27.529 25.7348 28.1394 25.5557C28.0042 25.035 27.7194 24.4498 27.2724 24.0104L27.1314 24.0016C27.0341 23.9956 26.9374 23.9895 26.844 23.9842L26.7599 23.9793C26.1377 23.9432 25.5459 23.9089 25.0612 23.8137C24.4714 25.3434 21.5734 26.4558 18.0036 26.4558C14.4326 26.4558 11.5371 25.3431 10.9473 23.8137C10.4375 23.9132 9.81408 23.9491 9.1621 23.9859C9.04523 23.9924 8.92265 23.9998 8.80248 24.0074C8.29865 24.443 7.93153 25.0144 7.78701 25.5118C7.97869 25.6508 8.13372 25.8393 8.23586 26.0599C9.1558 26.4855 9.96845 27.3814 10.591 28.6569C10.6952 28.8719 10.709 29.1143 10.6324 29.3355C11.0053 30.2764 11.2186 31.3052 11.2186 32.169C11.2186 33.3795 11.2186 34.5243 9.87263 34.8185C9.72662 34.9372 9.54456 35.0023 9.35288 35.0023H8.4537C8.00275 35.0023 7.6359 34.6421 7.6359 34.2006L7.6368 34.1694C7.65393 33.7432 8.01746 33.3989 8.45399 33.3989H9.35316C9.4454 33.3989 9.53523 33.4142 9.62235 33.4446C9.67673 33.429 9.69386 33.4166 9.69416 33.4163C9.7942 33.2422 9.7942 32.5177 9.7942 32.1699C9.7942 31.4687 9.61455 30.6208 9.30119 29.8333C9.13835 29.7425 9.00646 29.6053 8.92564 29.4392C8.38035 28.32 7.6386 27.597 7.03654 27.597C6.42065 27.597 5.6419 28.3786 5.09875 29.5407C5.01013 29.7304 4.8545 29.8845 4.66342 29.9763C4.37951 30.73 4.22358 31.5054 4.22358 32.169C4.22358 32.4612 4.22358 33.2369 4.33714 33.4186L4.33956 33.4197C4.34742 33.4234 4.37495 33.4366 4.43478 33.451C4.52792 33.4163 4.62826 33.3977 4.72771 33.3977H5.62873C6.04903 33.3977 6.39961 33.712 6.4423 34.1184L6.4465 34.1682C6.4465 34.6414 6.07967 35.0017 5.6287 35.0017H4.72768C4.54923 35.0017 4.37617 34.9433 4.23406 34.8364C3.71942 34.7413 3.35681 34.519 3.12723 34.157C2.84903 33.7188 2.79826 33.1436 2.79826 32.1684C2.79826 31.3125 2.99925 30.3277 3.36578 29.3865C3.3114 29.185 3.33003 28.9747 3.41956 28.7854C3.80081 27.9681 4.28574 27.268 4.82142 26.7617C5.11615 26.4834 5.43251 26.2596 5.7639 26.0967C5.88497 25.819 6.09047 25.5854 6.34434 25.4367C6.41615 25.0391 6.57448 24.6291 6.79921 24.235C6.77658 24.2395 6.75329 24.2435 6.72995 24.2475H6.72993C6.69686 24.2531 6.66368 24.2587 6.63216 24.266C6.57597 24.278 6.50818 24.291 6.42904 24.3062L6.42897 24.3062L6.40984 24.3098L6.40497 24.3108C5.72469 24.4399 4.18693 24.7319 2.67032 26.4668C1.75369 27.5156 0.844904 29.0892 0.137625 31.4748C-0.0393332 32.0694 -0.039933 32.6961 0.103075 33.2811C0.169471 33.5461 0.255998 33.8091 0.386386 34.0515C1.95377 36.9637 10.5041 38.0001 17.9807 38.0001H18.0227C25.5015 38.0001 34.048 36.9637 35.6186 34.0533C35.7709 33.7738 35.8619 33.4678 35.9274 33.1527C36.0368 32.6066 36.0275 32.0321 35.8658 31.4796C35.2304 29.3255 34.4297 27.8455 33.605 26.8024C32.0019 24.7728 30.3153 24.4453 29.5969 24.311L29.5969 24.311ZM28.8272 29.0555C29.5411 29.0555 30.1194 28.4886 30.1194 27.7891C30.1194 27.0893 29.5411 26.5224 28.8272 26.5224C28.1137 26.5224 27.535 27.0893 27.535 27.7891C27.535 28.4886 28.1137 29.0555 28.8272 29.0555Z" fill="currentColor"/>
</svg>
