<svg width="95" height="95" viewBox="0 0 95 95" fill="none"
  xmlns="http://www.w3.org/2000/svg">
  <path fill-rule="evenodd" clip-rule="evenodd" d="M30.9279 63.0536C31.3066 62.9434 31.5417 62.8262 31.6668 62.7438V50.1387H36.9445V62.7438C37.0696 62.8262 37.3048 62.9434 37.6834 63.0536C38.1326 63.1848 38.6173 63.2587 39.0142 63.2972C39.1224 63.3078 39.2195 63.3152 39.3021 63.3205C39.2718 59.0723 39.4974 51.8515 45.5154 51.8515C54.1963 51.8515 60.3969 82.1524 56.6766 85.2443C52.956 88.336 45.5154 86.4809 41.7948 82.7706C38.9572 79.9407 39.0324 73.5367 39.2066 68.6009C39.0253 68.5927 38.7849 68.5776 38.5033 68.5502C37.9106 68.4927 37.076 68.3742 36.2057 68.1203C35.6362 67.9544 34.9617 67.7049 34.3057 67.3162C33.6496 67.7049 32.9751 67.9544 32.4057 68.1203C31.5354 68.3742 30.7007 68.4927 30.108 68.5502C29.805 68.5797 29.5499 68.5948 29.3646 68.6024C29.2715 68.6064 29.1952 68.6085 29.1384 68.6095H29.1274C29.3013 73.5446 29.3746 79.9426 26.5386 82.7706C22.8183 86.4809 15.3774 88.3363 11.6571 85.2443C7.9367 82.1524 14.1374 51.8515 22.8183 51.8515C28.8421 51.8515 29.0622 59.0863 29.0316 63.3329H29.0358C29.0564 63.3323 29.0936 63.3315 29.1448 63.3291C29.2482 63.325 29.4052 63.3159 29.5971 63.2972C29.994 63.2587 30.4787 63.1848 30.9279 63.0536ZM23.0175 57.2623L23.0334 57.2946C23.1352 57.5033 23.2503 57.8101 23.3572 58.2366C23.7754 59.9057 23.7609 61.8511 23.7464 63.7831C23.7438 64.1356 23.7411 64.4876 23.7411 64.8376C23.7411 65.782 23.7839 66.9326 23.8256 68.0575C23.8414 68.4782 23.8567 68.8953 23.8699 69.2972C23.9214 70.8785 23.9478 72.4613 23.8762 73.9633C23.8037 75.4854 23.6372 76.7463 23.3743 77.7116C23.2461 78.1819 23.1125 78.5157 22.997 78.741C22.8832 78.9632 22.812 79.0337 22.812 79.0337C21.792 80.0507 19.9958 81.0081 18.0931 81.377C17.0874 81.572 16.3586 81.5541 15.863 81.4726C15.8229 80.8627 15.8192 80.0494 15.8794 79.034C16.048 76.1845 16.6721 72.471 17.6793 68.7763C18.6956 65.0481 20.0105 61.6756 21.4073 59.3618C22.066 58.2704 22.6265 57.6115 23.0175 57.2623ZM45.3003 57.2946L45.3162 57.2623C45.7072 57.6115 46.2675 58.2704 46.9264 59.3618C48.3232 61.6756 49.6381 65.0481 50.6544 68.7763C51.6616 72.471 52.2857 76.1845 52.4544 79.034C52.5145 80.0494 52.5108 80.8627 52.4704 81.4726C51.9751 81.5541 51.2463 81.572 50.2406 81.377C48.3379 81.0081 46.5417 80.0507 45.5217 79.0337C45.5217 79.0337 45.4505 78.9632 45.3365 78.741C45.2212 78.5157 45.0876 78.1819 44.9594 77.7116C44.6965 76.7463 44.53 75.4854 44.4575 73.9633C44.3859 72.4613 44.4123 70.8785 44.4638 69.2972C44.477 68.8956 44.4923 68.4784 44.5079 68.0581C44.5498 66.9328 44.5926 65.782 44.5926 64.8376C44.5926 64.4874 44.5899 64.1348 44.5873 63.782C44.5728 61.85 44.5583 59.9057 44.9765 58.2363C45.0834 57.8101 45.1985 57.5033 45.3003 57.2946Z" fill="currentColor"/>
  <path fill-rule="evenodd" clip-rule="evenodd" d="M68.6108 21.1111C68.6108 22.5685 67.4294 23.7499 65.9719 23.7499C64.5144 23.7499 63.333 22.5685 63.333 21.1111C63.333 19.6536 64.5144 18.4722 65.9719 18.4722C67.4294 18.4722 68.6108 19.6536 68.6108 21.1111Z" fill="currentColor"/>
  <path fill-rule="evenodd" clip-rule="evenodd" d="M73.8891 29.0276C73.8891 30.485 72.7077 31.6664 71.2502 31.6664C69.7928 31.6664 68.6113 30.485 68.6113 29.0276C68.6113 27.5701 69.7928 26.3887 71.2502 26.3887C72.7077 26.3887 73.8891 27.5701 73.8891 29.0276Z" fill="currentColor"/>
  <path fill-rule="evenodd" clip-rule="evenodd" d="M79.1664 36.9446C79.1664 38.402 77.985 39.5834 76.5276 39.5834C75.0701 39.5834 73.8887 38.402 73.8887 36.9446C73.8887 35.4871 75.0701 34.3057 76.5276 34.3057C77.985 34.3057 79.1664 35.4871 79.1664 36.9446Z" fill="currentColor"/>
  <path fill-rule="evenodd" clip-rule="evenodd" d="M95.0004 34.3054C95.0004 35.7628 93.819 36.9443 92.3615 36.9443C90.9041 36.9443 89.7227 35.7628 89.7227 34.3054C89.7227 32.8479 90.9041 31.6665 92.3615 31.6665C93.819 31.6665 95.0004 32.8479 95.0004 34.3054Z" fill="currentColor"/>
  <path fill-rule="evenodd" clip-rule="evenodd" d="M95.0004 21.1111C95.0004 22.5685 93.819 23.7499 92.3615 23.7499C90.9041 23.7499 89.7227 22.5685 89.7227 21.1111C89.7227 19.6536 90.9041 18.4722 92.3615 18.4722C93.819 18.4722 95.0004 19.6536 95.0004 21.1111Z" fill="currentColor"/>
  <path fill-rule="evenodd" clip-rule="evenodd" d="M95.0004 10.5554C95.0004 12.0128 93.819 13.1943 92.3615 13.1943C90.9041 13.1943 89.7227 12.0128 89.7227 10.5554C89.7227 9.09799 90.9041 7.9165 92.3615 7.9165C93.819 7.9165 95.0004 9.09799 95.0004 10.5554Z" fill="currentColor"/>
  <path fill-rule="evenodd" clip-rule="evenodd" d="M84.4448 15.8332C84.4448 17.2907 83.2633 18.4721 81.8059 18.4721C80.3484 18.4721 79.167 17.2907 79.167 15.8332C79.167 14.3758 80.3484 13.1943 81.8059 13.1943C83.2633 13.1943 84.4448 14.3758 84.4448 15.8332Z" fill="currentColor"/>
  <path fill-rule="evenodd" clip-rule="evenodd" d="M84.4448 26.3889C84.4448 27.8463 83.2633 29.0278 81.8059 29.0278C80.3484 29.0278 79.167 27.8463 79.167 26.3889C79.167 24.9314 80.3484 23.75 81.8059 23.75C83.2633 23.75 84.4448 24.9314 84.4448 26.3889Z" fill="currentColor"/>
  <path fill-rule="evenodd" clip-rule="evenodd" d="M63.3334 34.3054C63.3334 35.7628 62.152 36.9443 60.6946 36.9443C59.2371 36.9443 58.0557 35.7628 58.0557 34.3054C58.0557 32.8479 59.2371 31.6665 60.6946 31.6665C62.152 31.6665 63.3334 32.8479 63.3334 34.3054Z" fill="currentColor"/>
  <path fill-rule="evenodd" clip-rule="evenodd" d="M44.8608 29.0276C44.8608 30.485 43.6794 31.6664 42.2219 31.6664C40.7644 31.6664 39.583 30.485 39.583 29.0276C39.583 27.5701 40.7644 26.3887 42.2219 26.3887C43.6794 26.3887 44.8608 27.5701 44.8608 29.0276Z" fill="currentColor"/>
  <path fill-rule="evenodd" clip-rule="evenodd" d="M36.9448 26.3889C36.9448 27.8463 35.7633 29.0278 34.3059 29.0278C32.8484 29.0278 31.667 27.8463 31.667 26.3889C31.667 24.9314 32.8484 23.75 34.3059 23.75C35.7633 23.75 36.9448 24.9314 36.9448 26.3889Z" fill="currentColor"/>
  <path fill-rule="evenodd" clip-rule="evenodd" d="M54.6815 42.4138C56.4978 42.6331 58.2748 43.1012 59.9558 43.8063C62.2503 44.7687 64.3205 46.1531 66.0466 47.8797C67.773 49.6061 69.1207 51.6401 70.0124 53.8639C70.9038 56.088 71.321 58.4575 71.2402 60.8353V95H0V58.3374C0.116427 54.0318 2.00484 49.9404 5.26126 46.9384C8.5177 43.9365 12.8836 42.2621 17.4251 42.2734H24.8813V30.5137C21.9257 28.3258 19.7645 25.317 18.7002 21.9075C17.6357 18.4978 17.7209 14.8583 18.9441 11.4968C20.1672 8.13562 22.467 5.22068 25.5223 3.15942C28.5773 1.09815 32.2353 -0.00641457 35.9847 2.80236e-05C39.8594 0.0284368 43.6232 1.22909 46.7284 3.42724C49.8333 5.62534 52.1173 8.70612 53.2478 12.221C54.0178 14.615 54.0178 17.3705 54.0178 17.3705C54.6659 19.0229 55.3549 20.6369 56.0437 22.2506L57.0164 24.5955C57.3795 25.2304 57.6259 25.9191 57.7458 26.6322C57.7721 27.1059 57.613 27.5719 57.2987 27.9408C57.1565 28.1076 56.9873 28.2493 56.7989 28.3614C56.5707 28.4971 56.3142 28.5895 56.0439 28.6306C56.0107 28.6306 55.9064 28.614 55.7621 28.591C55.6193 28.5683 55.4375 28.5393 55.2462 28.514C54.6825 28.439 54.0349 28.3949 54.0582 28.6306C54.0972 29.0278 54.0582 33.0502 54.0582 33.0502C54.0497 34.4779 53.5655 35.8564 52.6899 36.9956L52.6804 37.008C52.4622 37.2904 52.2202 37.558 51.955 37.8081C50.6186 39.0682 48.8107 39.7754 46.9263 39.7754H44.1299V42.2734H52.6804C53.3509 42.2866 54.0189 42.3335 54.6815 42.4138ZM44.1299 47.5512C41.2152 47.5512 38.8521 45.1883 38.8521 42.2735V39.7755C38.8521 36.8608 41.2152 34.4977 44.1299 34.4977H46.926C47.5032 34.4977 48.0051 34.2784 48.3341 33.9683C48.6537 33.6667 48.7788 33.3186 48.7807 33.0186V32.9991L48.7862 32.3736C48.7891 31.9937 48.7928 31.4849 48.7952 30.9651C48.7975 30.4425 48.7986 29.9208 48.797 29.511C48.796 29.3046 48.7946 29.1424 48.7925 29.0296L48.7912 28.9685C48.7236 27.925 48.9572 26.8153 49.5673 25.8158C50.0405 25.0404 50.626 24.5166 51.1258 24.1736C50.4611 22.6156 49.765 20.9813 49.1044 19.2982C48.8656 18.6892 48.7419 18.0408 48.74 17.3864L48.7392 17.3468C48.7384 17.3022 48.7366 17.2235 48.7324 17.1172C48.7234 16.9024 48.7054 16.5839 48.6685 16.2052C48.5904 15.4032 48.4466 14.5308 48.2233 13.8368C47.4541 11.4444 45.8821 9.29467 43.6789 7.73489C41.4757 6.17529 38.7724 5.30143 35.9609 5.2778C33.2521 5.27609 30.6346 6.07687 28.4739 7.53461C26.3126 8.99285 24.7335 11.0213 23.9036 13.3017C23.0755 15.5777 23.0188 18.0308 23.7381 20.3345C24.4585 22.6423 25.9368 24.7288 28.0216 26.2718C29.3661 27.2671 30.1591 28.841 30.1591 30.5138V42.2735C30.1591 45.1883 27.7962 47.5512 24.8813 47.5512H17.4117C14.1632 47.543 11.0899 48.7435 8.83859 50.819C6.61311 52.8704 5.37133 55.602 5.27778 58.416V89.7222H65.9625V60.8354C65.9625 60.7755 65.9632 60.7156 65.9654 60.6559C66.0213 59.0159 65.7339 57.3761 65.1135 55.8278C64.4926 54.2788 63.5463 52.8433 62.3145 51.6114C61.0824 50.3791 59.5893 49.376 57.9146 48.6735C56.254 47.9769 54.4558 47.5935 52.6242 47.5512H44.1299Z" fill="currentColor"/>
</svg>
