<svg width="95" height="95" viewBox="0 0 95 95" fill="none"
  xmlns="http://www.w3.org/2000/svg">
  <path fill-rule="evenodd" clip-rule="evenodd" d="M69.4719 5.37626C62.9013 1.94198 55.4275 0 47.5 0C21.2665 0 0 21.2665 0 47.5C0 73.7335 21.2665 95 47.5 95C73.7335 95 95 73.7335 95 47.5C95 41.5351 93.9004 35.8266 91.893 30.5668C90.5281 31.7305 88.9704 32.6628 87.2768 33.3054C88.8601 37.7414 89.7222 42.5202 89.7222 47.5C89.7222 70.8188 70.8188 89.7222 47.5 89.7222C24.1812 89.7222 5.27778 70.8188 5.27778 47.5C5.27778 24.1812 24.1812 5.27778 47.5 5.27778C54.6841 5.27778 61.4489 7.07194 67.3711 10.2367C67.9437 8.56998 68.6626 6.94144 69.4719 5.37626Z" fill="currentColor"/>
  <path fill-rule="evenodd" clip-rule="evenodd" d="M21.7351 38.0785C27.0757 40.0613 32.9454 38.7667 37.9917 33.9761C38.8699 36.5865 36.5372 42.0801 30.7802 42.9301C25.0232 43.78 21.3466 40.4844 21.7351 38.0785Z" fill="currentColor"/>
  <path fill-rule="evenodd" clip-rule="evenodd" d="M20.4321 37.8682C20.1178 39.8149 21.4386 41.6819 23.2412 42.8364C25.1246 44.0427 27.8099 44.7024 30.9724 44.2353C34.2604 43.75 36.5972 41.9258 37.9747 39.8405C39.3055 37.826 39.8533 35.3731 39.2419 33.5555C39.0983 33.1285 38.7468 32.8042 38.3095 32.6957C37.8723 32.587 37.4097 32.7092 37.083 33.0193C32.3438 37.518 26.9921 38.6229 22.1941 36.8417C21.8239 36.7042 21.4117 36.7398 21.0705 36.9385C20.7293 37.1372 20.4952 37.4785 20.4321 37.8682ZM30.5871 41.6249C27.9926 42.0079 25.9611 41.4447 24.6644 40.6142C24.3728 40.4274 24.1282 40.2361 23.9247 40.046C28.1662 40.8211 32.5457 39.7674 36.5196 36.9103C36.3475 37.3858 36.1032 37.8861 35.7728 38.3859C34.7642 39.9128 33.0563 41.2602 30.5871 41.6249Z" fill="currentColor"/>
  <path fill-rule="evenodd" clip-rule="evenodd" d="M72.108 38.0785C66.7677 40.0613 60.898 38.7667 55.8514 33.9761C54.9734 36.5865 57.3062 42.0801 63.0632 42.9301C68.8202 43.78 72.4964 40.4844 72.108 38.0785Z" fill="currentColor"/>
  <path fill-rule="evenodd" clip-rule="evenodd" d="M73.4108 37.8682C73.7248 39.8149 72.4043 41.6819 70.6017 42.8364C68.7181 44.0427 66.033 44.7024 62.8703 44.2353C59.5825 43.75 57.2458 41.9258 55.8683 39.8405C54.5372 37.826 53.9894 35.3731 54.6008 33.5555C54.7446 33.1285 55.0961 32.8042 55.5334 32.6957C55.9707 32.587 56.4332 32.7092 56.7599 33.0193C61.4991 37.518 66.8505 38.6229 71.6488 36.8417C72.0191 36.7042 72.4313 36.7398 72.7725 36.9385C73.1137 37.1372 73.3477 37.4785 73.4108 37.8682ZM63.2559 41.6249C65.8504 42.0079 67.8818 41.4447 69.1786 40.6142C69.4702 40.4274 69.7145 40.2361 69.918 40.046C65.6768 40.8211 61.2972 39.7674 57.3234 36.9103C57.4952 37.3858 57.7398 37.8861 58.0702 38.3859C59.0785 39.9128 60.7866 41.2602 63.2559 41.6249Z" fill="currentColor"/>
  <path fill-rule="evenodd" clip-rule="evenodd" d="M92.3611 18.4722C92.3611 24.3018 87.6351 29.0278 81.8056 29.0278C75.976 29.0278 71.25 24.3018 71.25 18.4722C71.25 9.23611 81.8056 0 81.8056 0C81.8056 0 92.3611 9.23611 92.3611 18.4722ZM87.0833 18.4722C87.0833 21.3872 84.7205 23.75 81.8056 23.75C78.8906 23.75 76.5278 21.3872 76.5278 18.4722C76.5278 15.6581 78.2526 12.2175 80.726 8.97111C81.0878 8.49625 81.4506 8.04478 81.8056 7.6211C82.1605 8.04478 82.5233 8.49625 82.8851 8.97111C85.3586 12.2175 87.0833 15.6581 87.0833 18.4722Z" fill="currentColor"/>
  <path fill-rule="evenodd" clip-rule="evenodd" d="M67.0454 71.2498C63.4143 61.8509 56.0254 55.4165 47.5004 55.4165C38.9755 55.4165 31.5866 61.8509 27.9555 71.2498C26.9332 73.8961 29.0633 76.5276 31.9004 76.5276H63.1005C65.9376 76.5276 68.0677 73.8961 67.0454 71.2498ZM47.5004 60.6943C52.6729 60.6943 58.0351 64.3526 61.3063 71.2498H33.6946C36.9657 64.3526 42.3279 60.6943 47.5004 60.6943Z" fill="currentColor"/>
  <path fill-rule="evenodd" clip-rule="evenodd" d="M25.5399 56.1167L42.6927 71.95L39.1127 75.8281L21.96 59.9948L25.5399 56.1167Z" fill="currentColor"/>
  <path fill-rule="evenodd" clip-rule="evenodd" d="M29.0282 58.0556C29.0282 60.9705 26.6654 63.3334 23.7504 63.3334C20.8355 63.3334 18.4727 60.9705 18.4727 58.0556C18.4727 55.1407 20.8355 52.7778 23.7504 52.7778C26.6654 52.7778 29.0282 55.1407 29.0282 58.0556Z" fill="currentColor"/>
</svg>
