<svg width="95" height="95" viewBox="0 0 95 95" fill="none"
  xmlns="http://www.w3.org/2000/svg">
  <path fill-rule="evenodd" clip-rule="evenodd" d="M28.277 23.9453C31.3906 27.3395 36.6509 28.7954 46.2913 29.0017C46.841 21.7211 49.6453 15.9857 53.7955 11.9598C58.4088 7.48519 64.5268 5.27777 70.5963 5.27777C76.6654 5.27777 82.7834 7.48519 87.3967 11.9598C92.0412 16.4647 94.9999 23.1105 94.9999 31.6667V60.6945C94.9999 68.8281 93.6453 77.3226 89.5466 83.866C85.3286 90.5996 78.362 95 67.9333 95C57.2696 95 49.8446 88.6714 43.0555 82.8139L42.76 82.5589C35.9234 76.6587 29.5534 71.1614 20.496 69.9311C16.0544 69.9647 13.0646 71.3218 10.9772 73.1799C8.81237 75.1068 7.41624 77.7552 6.5447 80.5994C5.67484 83.4383 5.37391 86.3239 5.29864 88.5337C5.2613 89.6304 5.28014 90.5403 5.30764 91.1683C5.32136 91.4821 5.3372 91.7241 5.34904 91.8824C5.35498 91.9615 5.35992 92.0196 5.36308 92.0553L5.36641 92.0916L5.3667 92.0946C5.36662 92.0938 5.36652 92.0927 2.7413 92.3611C0.116142 92.6292 0.115958 92.6279 0.11582 92.6269L0.115528 92.6237L0.114761 92.6164L0.112629 92.5941L0.106079 92.5229C0.100802 92.4638 0.0938688 92.3809 0.0860303 92.2767C0.070384 92.0677 0.0511943 91.7711 0.0349038 91.3993C0.00239935 90.6563 -0.0187385 89.6077 0.023936 88.3539C0.108748 85.8634 0.447951 82.4816 1.49852 79.0532C2.54742 75.63 4.35199 72.0111 7.4683 69.2374C10.6355 66.4184 14.958 64.6528 20.6651 64.6528C21.9925 64.6528 23.243 64.6829 24.4445 64.7117C26.6786 64.7655 28.7409 64.8152 30.8103 64.6599C33.8572 64.4317 36.3702 63.7678 38.4467 62.2114C42.4214 59.2323 45.8667 52.1197 46.1707 34.2795C36.3567 34.076 29.0697 32.6171 24.3878 27.5129C21.8449 24.741 20.2751 21.1133 19.3283 16.6253C18.3848 12.154 18.0262 6.66311 18.0262 0H23.304C23.304 6.53131 23.6611 11.5959 24.4923 15.5361C25.3201 19.4596 26.5836 22.0992 28.277 23.9453ZM89.7221 31.6667V50.2089C86.6773 52.5496 84.1343 52.9926 81.7849 52.6966C78.9998 52.3459 76.2532 50.953 72.8464 49.2253L72.6081 49.1045C69.2662 47.4104 65.3591 45.4668 60.921 44.9786C57.666 44.6208 54.2454 45.0504 50.5969 46.6715C51.1748 42.4231 51.4704 37.4572 51.4704 31.6667C51.4704 24.3894 53.9528 19.1603 57.4701 15.7485C61.0187 12.3066 65.7832 10.5557 70.5962 10.5557C75.4093 10.5557 80.1738 12.3066 83.722 15.7485C87.2397 19.1603 89.7221 24.3894 89.7221 31.6667ZM45.839 78.2441C42.3866 75.2605 38.6942 72.0696 34.4227 69.5044C36.9135 69.0202 39.3714 68.1139 41.612 66.4343C45.0436 63.8624 47.6298 59.7487 49.2904 53.4307C53.6356 50.4989 57.2076 49.8798 60.3442 50.225C63.699 50.5939 66.8015 52.0782 70.2218 53.812L70.791 54.1012C73.8969 55.6814 77.4011 57.4639 81.1251 57.9329C83.9535 58.2891 86.8061 57.8923 89.7221 56.4308V60.6945C89.7221 68.3939 88.4137 75.7327 85.074 81.0642C81.8535 86.2056 76.6063 89.7222 67.9333 89.7222C59.4952 89.7222 53.4773 84.8352 46.5032 78.8178L45.839 78.2441Z" fill="currentColor"/>
</svg>
