<svg width="36" height="36" viewBox="0 0 36 36" fill="none"
  xmlns="http://www.w3.org/2000/svg">
  <path fill-rule="evenodd" clip-rule="evenodd" d="M35.3129 15.1143L30.7786 14.2899C30.5039 13.3281 30.0915 12.5038 29.6794 11.6794L32.29 7.83204C32.5647 7.41971 32.5647 7.00765 32.29 6.73289L29.1297 3.71002C28.855 3.4353 28.4426 3.4353 28.168 3.71002L24.458 6.32057C23.4962 5.90824 22.6718 5.49618 21.7098 5.22142L20.8854 0.687078C20.8854 0.274748 20.4731 0 20.061 0H15.8016C15.3893 0 15.1146 0.274716 15.1146 0.687078L14.2902 5.22142C13.3284 5.49614 12.504 5.9085 11.542 6.32057L7.83204 3.71002C7.55732 3.4353 7.14496 3.4353 6.87027 3.71002L3.71002 6.73289C3.57266 7.00761 3.4353 7.41997 3.71002 7.83204L6.32057 11.542C5.90824 12.5038 5.49618 13.3281 5.22142 14.2902L0.687078 15.1146C0.274748 15.1146 0 15.3893 0 15.8016V20.061C0 20.4734 0.274716 20.8854 0.687078 20.8854L5.22142 21.7098C5.49614 22.6716 5.9085 23.496 6.32057 24.458L3.71002 28.168C3.4353 28.4427 3.4353 28.855 3.71002 29.1297L6.73289 32.29C7.00761 32.5647 7.41997 32.5647 7.83204 32.29L11.542 29.6794C12.5038 30.0918 13.3281 30.5038 14.2902 30.7786L15.1146 35.3129C15.1146 35.7253 15.3893 36 15.8016 36H20.061C20.4734 36 20.8854 35.7253 20.8854 35.3129L21.7098 30.7786C22.6716 30.5039 23.496 30.0915 24.458 29.6794L28.3053 32.29C28.58 32.5647 28.9924 32.5647 29.2671 32.29L32.29 29.1297C32.5647 28.855 32.5647 28.4426 32.4273 28.168L29.6792 24.3206C30.0915 23.4962 30.5035 22.6718 30.7783 21.7101L35.3126 20.8857C35.725 20.8857 35.9997 20.4734 35.9997 20.0613V15.8019C35.9997 15.3896 35.725 15.1148 35.3126 15.1148L35.3129 15.1143ZM18.0003 9.89289C22.5347 9.89289 26.2449 13.4655 26.2449 17.9999C26.2449 22.5342 22.5349 26.2444 18.0003 26.2444C13.4657 26.2444 9.75576 22.5345 9.75576 17.9999C9.75576 13.4653 13.4657 9.89289 18.0003 9.89289Z" fill="currentColor"/>
</svg>
