<svg width="95" height="95" viewBox="0 0 95 95" fill="none"
  xmlns="http://www.w3.org/2000/svg">
  <path fill-rule="evenodd" clip-rule="evenodd" d="M40.9028 68.6109C40.2721 68.6109 39.6928 68.8324 39.239 69.2016C38.703 67.4649 37.602 65.8668 36.3655 64.3225C35.4543 63.1849 33.7936 63.0012 32.656 63.9121C31.5184 64.8233 31.3347 66.484 32.2456 67.6216C33.8989 69.6857 34.2887 70.7099 34.305 71.3709C34.3187 71.9283 34.0696 72.8635 32.3528 74.7526C31.3724 75.8312 31.4521 77.5003 32.5306 78.4804C33.6092 79.4607 35.2782 79.3811 36.2583 78.3026C37.6759 76.7427 38.8167 75.1353 39.3139 73.357C39.7559 73.6908 40.3061 73.8887 40.9028 73.8887H54.0972C54.6939 73.8887 55.2441 73.6908 55.6861 73.357C56.1833 75.1353 57.3241 76.7427 58.7417 78.3026C59.7217 79.3811 61.3908 79.4607 62.4694 78.4804C63.5479 77.5003 63.6276 75.8312 62.6472 74.7526C60.9304 72.8635 60.6812 71.9283 60.695 71.3709C60.7113 70.7099 61.1011 69.6857 62.7544 67.6216C63.6653 66.484 63.4816 64.8233 62.344 63.9121C61.2064 63.0012 59.5457 63.1849 58.6345 64.3225C57.3979 65.8668 56.297 67.4649 55.761 69.2016C55.3071 68.8324 54.7279 68.6109 54.0972 68.6109H40.9028Z" fill="currentColor"/>
  <path fill-rule="evenodd" clip-rule="evenodd" d="M20.4321 45.7853C20.1178 47.732 21.4386 49.599 23.2412 50.7533C25.1246 51.9598 27.8099 52.6193 30.9724 52.1525C34.2604 51.6672 36.5972 49.8429 37.9747 47.7576C39.3055 45.7428 39.8533 43.2903 39.2419 41.4726C39.0983 41.0456 38.7468 40.7213 38.3096 40.6126C37.8723 40.5041 37.4097 40.626 37.083 40.9363C32.3438 45.4348 26.9921 46.54 22.1941 44.7584C21.8239 44.621 21.4117 44.6567 21.0705 44.8556C20.7293 45.0543 20.4952 45.3956 20.4321 45.7853Z" fill="currentColor"/>
  <path fill-rule="evenodd" clip-rule="evenodd" d="M73.4103 45.7853C73.7244 47.732 72.4038 49.599 70.6012 50.7533C68.7176 51.9598 66.0325 52.6193 62.8698 52.1525C59.582 51.6672 57.2453 49.8429 55.8678 47.7576C54.5367 45.7428 53.9889 43.2903 54.6003 41.4726C54.7441 41.0456 55.0956 40.7213 55.5329 40.6126C55.9702 40.5041 56.4328 40.626 56.7595 40.9363C61.4986 45.4348 66.85 46.54 71.6483 44.7584C72.0186 44.621 72.4308 44.6567 72.772 44.8556C73.1132 45.0543 73.3473 45.3956 73.4103 45.7853Z" fill="currentColor"/>
  <path fill-rule="evenodd" clip-rule="evenodd" d="M47.5 95C73.7335 95 95 73.7334 95 47.5C95 21.2666 73.7335 0 47.5 0C21.2665 0 0 21.2666 0 47.5C0 73.7334 21.2665 95 47.5 95ZM47.5 89.7222C70.8188 89.7222 89.7222 70.8188 89.7222 47.5C89.7222 24.1812 70.8188 5.27778 47.5 5.27778C24.1812 5.27778 5.27778 24.1812 5.27778 47.5C5.27778 70.8188 24.1812 89.7222 47.5 89.7222Z" fill="currentColor"/>
</svg>
