<svg width="95" height="57" viewBox="0 0 95 57" fill="none"
  xmlns="http://www.w3.org/2000/svg">
  <path fill-rule="evenodd" clip-rule="evenodd" d="M2.83076 21.0785C10.8965 11.9478 26.2267 0.318473 46.9134 0.102203C47.0537 0.100112 47.1943 0.0991211 47.3351 0.0991211H47.5001C68.4835 0.0991211 84.0274 11.8619 92.1693 21.0785C95.9436 25.3512 95.9436 31.6492 92.1693 35.9218C84.0274 45.1385 68.4835 56.9013 47.5001 56.9013H47.3351C47.1943 56.9013 47.0537 56.9003 46.9134 56.8982C26.2267 56.6819 10.8965 45.0526 2.83078 35.9218C-0.943578 31.6492 -0.943602 25.3512 2.83076 21.0785ZM46.9721 4.83549C47.1152 4.83384 47.2587 4.83307 47.4023 4.83263C60.4427 4.86884 71.0027 15.4513 71.0027 28.5002C71.0027 41.5491 60.4427 52.1315 47.4023 52.1678C47.2587 52.1673 47.1152 52.1665 46.9721 52.1649C34.0683 51.9711 23.6676 41.4501 23.6676 28.5002C23.6676 15.5503 34.0683 5.02931 46.9721 4.83549ZM75.7362 28.5002C75.7362 35.9339 72.8802 42.7005 68.2057 47.7627C77.1368 43.8354 84.08 37.9294 88.6215 32.7881C90.8148 30.3055 90.8148 26.6948 88.6215 24.2123C84.08 19.071 77.1368 13.165 68.2057 9.23761C72.8802 14.2999 75.7362 21.0664 75.7362 28.5002ZM6.37834 24.2123C10.8253 19.1782 17.5743 13.4111 26.2379 9.48591C21.698 14.5202 18.9341 21.1874 18.9341 28.5002C18.9341 35.813 21.698 42.4802 26.2379 47.5145C17.5743 43.5893 10.8253 37.8222 6.37834 32.7881C4.18523 30.3055 4.18523 26.6949 6.37834 24.2123ZM61.7004 28.5002C61.7004 36.3429 55.3426 42.7007 47.4999 42.7007C39.6571 42.7007 33.2993 36.3429 33.2993 28.5002C33.2993 20.6575 39.6571 14.2997 47.4999 14.2997C49.6922 14.2997 51.7685 14.7965 53.6224 15.6838C52.7645 16.5405 52.2336 17.7249 52.2336 19.0332C52.2336 21.6475 54.3528 23.7667 56.9671 23.7667C58.2755 23.7667 59.4598 23.2359 60.3165 22.3778C61.2036 24.2318 61.7004 26.3079 61.7004 28.5002Z" fill="currentColor"/>
</svg>
