<svg width="95" height="95" viewBox="0 0 95 95" fill="none"
  xmlns="http://www.w3.org/2000/svg">
  <path fill-rule="evenodd" clip-rule="evenodd" d="M69.8533 21.1111C69.8533 32.7705 59.8456 42.2222 47.5004 42.2222C35.1552 42.2222 25.1475 32.7705 25.1475 21.1111C25.1475 9.45172 35.1552 0 47.5004 0C59.8456 0 69.8533 9.45172 69.8533 21.1111ZM64.2651 21.1111C64.2651 29.8556 56.7593 36.9444 47.5004 36.9444C38.2415 36.9444 30.7357 29.8556 30.7357 21.1111C30.7357 12.3666 38.2415 5.27778 47.5004 5.27778C56.7593 5.27778 64.2651 12.3666 64.2651 21.1111Z" fill="currentColor"/>
  <path fill-rule="evenodd" clip-rule="evenodd" d="M69.8529 47.5C83.7414 47.5 95 58.1331 95 71.25C95 84.3669 83.7414 95 69.8529 95H64.2647V63.3333H69.8529C74.4825 63.3333 78.2353 66.8776 78.2353 71.25C78.2353 75.6224 74.4825 79.1667 69.8529 79.1667V89.7222C80.655 89.7222 89.4118 81.4519 89.4118 71.25C89.4118 61.0481 80.655 52.7778 69.8529 52.7778H59.1601L49.9683 74.1472C54.9533 75.2083 58.6765 79.4158 58.6765 84.4444C58.6765 90.274 53.6725 95 47.5 95H25.1471C11.2586 95 0 84.3669 0 71.25C0 58.1331 11.2586 47.5 25.1471 47.5H69.8529ZM5.58824 71.25C5.58824 61.0481 14.345 52.7778 25.1471 52.7778H39.8623L29.8834 63.3333H25.1471C20.5175 63.3333 16.7647 66.8776 16.7647 71.25C16.7647 72.8954 17.2967 74.4225 18.2045 75.687L10.6632 83.6641C7.50989 80.3843 5.58824 76.0291 5.58824 71.25ZM47.3539 52.7778H53.1285L37.2369 89.7222H25.1471C21.4206 89.7222 17.9374 88.7379 14.9731 87.0295L47.3539 52.7778ZM72.6471 71.25C72.6471 72.7075 71.3961 73.8889 69.8529 73.8889V68.6111C71.3961 68.6111 72.6471 69.7925 72.6471 71.25ZM22.3529 71.25C22.3529 69.8768 23.4636 68.7484 24.883 68.6228L22.3535 71.2983L22.3529 71.25ZM47.8057 79.1743L43.2686 89.7222H47.5C50.5864 89.7222 53.0882 87.3593 53.0882 84.4444C53.0882 81.6264 50.7498 79.3245 47.8057 79.1743Z" fill="currentColor"/>
</svg>
