<svg width="32" height="32" viewBox="0 0 32 32" fill="none"
  xmlns="http://www.w3.org/2000/svg">
  <path d="M0 4C0 1.79086 1.79086 0 4 0H28C30.2091 0 32 1.79086 32 4V28C32 30.2091 30.2091 32 28 32H4C1.79086 32 0 30.2091 0 28V4Z" fill="#032080"/>
  <path d="M14 22C15.775 21.9996 17.4988 21.4054 18.897 20.312L23.293 24.708L24.707 23.294L20.311 18.898C21.405 17.4997 21.9996 15.7754 22 14C22 9.589 18.411 6 14 6C9.589 6 6 9.589 6 14C6 18.411 9.589 22 14 22ZM14 8C17.309 8 20 10.691 20 14C20 17.309 17.309 20 14 20C10.691 20 8 17.309 8 14C8 10.691 10.691 8 14 8Z" fill="white"/>
</svg>
